<?xml version="1.0" standalone="no"?>
<!DOCTYPE svg PUBLIC "-//W3C//DTD SVG 20010904//EN"
 "http://www.w3.org/TR/2001/REC-SVG-20010904/DTD/svg10.dtd">
<svg version="1.0" xmlns="http://www.w3.org/2000/svg"
 width="316.000000pt" height="318.000000pt" viewBox="0 0 316.000000 318.000000"
 preserveAspectRatio="xMidYMid meet">

<g transform="translate(0.000000,318.000000) scale(0.100000,-0.100000)"
fill="#000000" stroke="none">
<path d="M1155 3114 c-52 -19 -109 -76 -124 -122 -16 -51 -11 -974 5 -979 7
-2 40 21 75 52 79 69 174 127 259 156 59 21 89 23 325 28 248 6 262 7 300 29
22 13 54 42 70 65 l30 42 3 285 c3 317 0 339 -61 398 -61 60 -81 62 -481 61
-290 0 -369 -3 -401 -15z m207 -358 c50 -37 39 -118 -18 -142 -60 -25 -113 11
-114 78 0 28 6 41 26 57 30 24 80 27 106 7z m255 -8 c25 -23 31 -74 13 -107
-16 -31 -65 -46 -100 -31 -37 15 -50 37 -50 81 0 70 85 106 137 57z m250 0
c44 -41 27 -116 -33 -138 -83 -32 -148 92 -76 146 27 21 83 17 109 -8z"/>
<path d="M155 2121 c-53 -24 -83 -55 -106 -105 -17 -38 -19 -72 -19 -422 0
-380 0 -381 23 -425 13 -24 43 -57 66 -74 l43 -30 491 0 c362 0 491 3 494 12
2 6 -21 39 -52 73 -68 77 -116 156 -152 246 -25 66 -27 78 -33 329 -5 241 -7
263 -27 301 -27 52 -72 90 -121 104 -21 5 -150 10 -302 10 -237 0 -269 -2
-305 -19z m370 -216 c63 -62 -2 -162 -86 -133 -34 12 -63 64 -52 95 22 64 93
84 138 38z m-1 -246 c55 -43 21 -139 -50 -139 -46 0 -63 9 -80 42 -41 79 58
153 130 97z m0 -250 c57 -45 19 -139 -56 -139 -42 0 -64 15 -77 50 -28 82 63
144 133 89z"/>
<path d="M1977 2133 c-13 -12 -7 -22 49 -85 68 -76 125 -171 155 -258 21 -59
23 -90 29 -320 4 -169 10 -265 19 -285 17 -41 58 -83 104 -106 35 -19 57 -20
332 -17 l293 3 43 30 c23 17 53 50 66 74 23 44 23 45 23 425 0 350 -2 384 -19
421 -24 53 -55 83 -105 106 -38 17 -74 19 -512 19 -259 0 -474 -3 -477 -7z
m730 -225 c30 -34 36 -63 19 -96 -16 -32 -65 -55 -94 -45 -36 13 -62 46 -62
80 0 72 90 111 137 61z m0 -250 c30 -34 36 -63 19 -96 -17 -34 -34 -42 -81
-42 -40 0 -75 38 -75 82 0 67 92 104 137 56z m-7 -238 c27 -14 41 -64 28 -100
-29 -85 -158 -57 -158 34 0 58 74 96 130 66z"/>
<path d="M1435 2106 c-92 -23 -165 -66 -240 -140 -164 -165 -201 -394 -97
-606 33 -67 148 -185 218 -222 97 -52 240 -71 356 -47 189 39 358 208 397 397
37 178 -14 346 -144 478 -131 132 -313 184 -490 140z"/>
<path d="M2052 1165 c-18 -13 -47 -36 -66 -52 -53 -47 -149 -102 -228 -130
-69 -25 -86 -27 -333 -32 -282 -7 -292 -9 -346 -68 -60 -63 -60 -67 -57 -387
l3 -294 31 -44 c18 -23 51 -53 75 -65 42 -23 47 -23 417 -23 256 0 387 4 413
12 46 13 106 68 125 114 11 27 14 128 14 514 0 264 -3 480 -7 479 -5 0 -23
-11 -41 -24z m-689 -589 c30 -23 41 -70 23 -104 -16 -32 -65 -55 -94 -45 -64
23 -85 104 -36 142 30 24 80 27 107 7z m251 -7 c19 -15 26 -30 26 -55 0 -47
-14 -70 -50 -83 -58 -20 -110 18 -110 79 0 45 35 80 80 80 15 0 39 -9 54 -21z
m250 0 c51 -40 27 -123 -41 -143 -31 -10 -80 21 -92 56 -28 80 64 141 133 87z"/>
</g>
</svg>
